<?xml version="1.0"?>
<svg xmlns="http://www.w3.org/2000/svg" width="56" height="56" viewBox="0 0 56 56" fill="none">
<g clip-path="url(#clip0_1279_50354)">
<path d="M45.507 2.59514e-07H10.4907C7.70837 2.59514e-07 5.04003 1.10526 3.07265 3.07265C1.10526 5.04003 2.59514e-07 7.70837 2.59514e-07 10.4907V45.507C-0.000306202 46.8849 0.270817 48.2493 0.797885 49.5223C1.32495 50.7954 2.09764 51.9521 3.07182 52.9265C4.046 53.9009 5.20259 54.6739 6.47552 55.2012C7.74846 55.7286 9.11282 56 10.4907 56H45.507C46.8851 56.0003 48.2497 55.7291 49.5229 55.2019C50.7961 54.6747 51.9529 53.9018 52.9274 52.9274C53.9018 51.9529 54.6747 50.7961 55.2019 49.5229C55.7291 48.2497 56.0003 46.8851 56 45.507V10.4907C56 9.11282 55.7286 7.74846 55.2012 6.47552C54.6739 5.20259 53.9009 4.046 52.9265 3.07182C51.9521 2.09764 50.7954 1.32495 49.5223 0.797885C48.2493 0.270817 46.8849 -0.000306202 45.507 2.59514e-07Z" fill="white"/>
<path d="M21.1489 7.80271C22.8349 7.10904 24.6703 6.85842 26.4806 7.07471C28.8139 7.34304 30.8929 8.33471 32.7176 10.0497C32.7409 10.073 32.7736 10.0894 32.8039 10.0987C32.8369 10.1068 32.8713 10.1068 32.9042 10.0987C35.2764 9.48611 37.7875 9.71282 40.0116 10.7404L40.1212 10.7917L40.3919 10.9247C42.72 12.1047 44.536 14.0957 45.4972 16.5224C45.9849 17.7124 46.2276 18.9514 46.2322 20.244C46.2673 21.2054 46.162 22.1668 45.9196 23.0977C45.9076 23.1447 45.9078 23.194 45.92 23.2409C45.9323 23.2878 45.9562 23.3309 45.9896 23.366C47.3756 24.7824 48.2949 26.4694 48.7499 28.4294C49.4242 31.7544 48.7336 34.7527 46.6802 37.422L46.3629 37.8094C45.003 39.3661 43.218 40.4917 41.2272 41.048C41.184 41.0607 41.1444 41.0834 41.1116 41.1142C41.0788 41.145 41.0536 41.1831 41.0382 41.2254C40.5926 42.511 40.1446 43.6124 39.3116 44.7114C37.2116 47.4811 34.1269 49.0187 30.6526 49C27.8829 48.986 25.4282 47.9734 23.2862 45.962C23.254 45.9319 23.2143 45.9108 23.1713 45.901C23.1283 45.8911 23.0834 45.8929 23.0412 45.906C22.1359 46.1977 21.2212 46.2397 20.2319 46.2281C18.6561 46.2154 17.104 45.8435 15.6936 45.1407C14.2162 44.4086 12.9299 43.342 11.9369 42.0257C11.5822 41.5544 11.2299 41.111 10.9709 40.586C10.6173 39.8656 10.3284 39.1152 10.1076 38.3437C9.64137 36.5882 9.63013 34.7428 10.0749 32.9817C10.0895 32.9398 10.0943 32.8951 10.0889 32.851C10.0809 32.8078 10.0588 32.7684 10.0259 32.739C8.94806 31.6481 8.12425 30.3327 7.61324 28.8867C7.27339 27.996 7.07575 27.0575 7.02757 26.1054C6.9428 24.8514 7.0538 23.5919 7.35657 22.372C8.1429 19.7774 9.6479 17.7404 11.8669 16.2634C12.3616 15.9344 12.8306 15.6777 13.2692 15.4934C13.7709 15.2857 14.2726 15.1107 14.7766 14.9637C14.8126 14.9525 14.8453 14.9326 14.8717 14.9058C14.8982 14.8789 14.9176 14.8459 14.9282 14.8097C15.3109 13.4355 15.969 12.1534 16.8626 11.0414C17.989 9.61106 19.4653 8.49556 21.1489 7.80271ZM29.2736 32.4544C28.8944 32.4757 28.5377 32.6413 28.2768 32.9172C28.0159 33.1932 27.8705 33.5586 27.8705 33.9384C27.8705 34.3182 28.0159 34.6835 28.2768 34.9595C28.5377 35.2355 28.8944 35.4011 29.2736 35.4224H37.7576C37.9595 35.4337 38.1615 35.4037 38.3514 35.3343C38.5413 35.2648 38.715 35.1573 38.862 35.0184C39.0089 34.8795 39.1259 34.7121 39.2059 34.5264C39.2859 34.3407 39.3272 34.1406 39.3272 33.9384C39.3272 33.7362 39.2859 33.5361 39.2059 33.3504C39.1259 33.1647 39.0089 32.9973 38.862 32.8584C38.715 32.7194 38.5413 32.612 38.3514 32.5425C38.1615 32.473 37.9595 32.4431 37.7576 32.4544H29.2736ZM19.7442 21.5367C19.5423 21.2078 19.2204 20.9704 18.8465 20.8746C18.4727 20.7788 18.0763 20.8322 17.741 21.0234C17.4058 21.2146 17.1582 21.5288 17.0504 21.8993C16.9426 22.2699 16.9832 22.6679 17.1636 23.009L20.1316 28.1984L17.1776 33.1824C17.0781 33.3501 17.0127 33.5358 16.9851 33.7289C16.9574 33.9219 16.968 34.1185 17.0163 34.3075C17.0647 34.4964 17.1497 34.674 17.2667 34.83C17.3836 34.9861 17.5301 35.1176 17.6979 35.217C17.8657 35.3165 18.0514 35.3819 18.2444 35.4096C18.4375 35.4372 18.6341 35.4266 18.823 35.3783C19.0119 35.33 19.1895 35.2449 19.3456 35.128C19.5016 35.011 19.6331 34.8645 19.7326 34.6967L23.1252 28.9684C23.259 28.7427 23.3306 28.4856 23.3326 28.2233C23.3347 27.961 23.2671 27.7028 23.1369 27.475L19.7442 21.5367Z" fill="url(#paint0_linear_1279_50354)"/>
</g>
<defs>
<linearGradient id="paint0_linear_1279_50354" x1="27.9996" y1="7.00004" x2="27.9996" y2="49" gradientUnits="userSpaceOnUse">
<stop stop-color="#B1A7FF"/>
<stop offset="0.5" stop-color="#7A9DFF"/>
<stop offset="1" stop-color="#3941FF"/>
</linearGradient>
<clipPath id="clip0_1279_50354">
<rect width="56" height="56" fill="white"/>
</clipPath>
</defs>
</svg>
