<?xml version="1.0"?>
<svg xmlns="http://www.w3.org/2000/svg" width="56" height="56" viewBox="0 0 56 56" fill="none">
<path fill-rule="evenodd" clip-rule="evenodd" d="M27.9998 2.23267C13.4105 2.23267 1.58008 14.0605 1.58008 28.6524C1.58008 40.3258 9.15014 50.2286 19.6475 53.7225C20.9675 53.9675 21.4522 53.1494 21.4522 52.4515C21.4522 51.8215 21.4277 49.7404 21.4163 47.5327C14.0663 49.1309 12.5154 44.4155 12.5154 44.4155C11.3136 41.3618 9.58195 40.5498 9.58195 40.5498C7.18445 38.91 9.76264 38.9442 9.76264 38.9442C12.4152 39.1301 13.8126 41.6667 13.8126 41.6667C16.169 45.7049 19.9931 44.5376 21.5008 43.863C21.7379 42.1554 22.4226 40.9895 23.1781 40.3297C17.31 39.6625 11.1408 37.3967 11.1408 27.2734C11.1408 24.389 12.1733 22.0322 13.8633 20.1815C13.5886 19.5165 12.6843 16.8294 14.1188 13.1903C14.1188 13.1903 16.337 12.4802 21.3857 15.8984C23.4936 15.3126 25.7541 15.0182 27.9998 15.0081C30.2442 15.0182 32.5061 15.3117 34.6179 15.8975C39.6605 12.4794 41.876 13.1894 41.876 13.1894C43.3141 16.8281 42.4098 19.5157 42.1355 20.1807C43.8295 22.0313 44.8545 24.3881 44.8545 27.2725C44.8545 37.4199 38.674 39.6538 32.7909 40.3083C33.739 41.1282 34.5833 42.7364 34.5833 45.2009C34.5833 48.7359 34.5527 51.5809 34.5527 52.4511C34.5527 53.1542 35.0287 53.978 36.3675 53.7185C46.8587 50.2212 54.42 40.3214 54.42 28.6524C54.4196 14.0614 42.5905 2.23267 27.9998 2.23267Z" fill="#181616"/>
<path d="M11.5869 40.1652C11.5287 40.2965 11.3222 40.3359 11.1341 40.2462C10.9416 40.1604 10.8344 39.9815 10.8966 39.8498C10.9534 39.7142 11.1604 39.677 11.3516 39.7676C11.5441 39.8537 11.6534 40.0344 11.5865 40.1657L11.5869 40.1652ZM12.6571 41.3592C12.5315 41.476 12.2852 41.4217 12.1181 41.2367C11.9448 41.0529 11.9124 40.8066 12.0406 40.6881C12.171 40.5717 12.4099 40.6268 12.5831 40.8106C12.7555 40.9969 12.7896 41.2411 12.6575 41.3596L12.6571 41.3592ZM13.6992 42.8804C13.5373 42.9932 13.2722 42.8878 13.1086 42.6529C12.9467 42.4175 12.9467 42.1353 13.1129 42.0229C13.2761 41.91 13.5373 42.0119 13.7036 42.2447C13.8646 42.4831 13.8646 42.7657 13.6992 42.8804ZM15.1259 44.3508C14.9815 44.5105 14.6726 44.4676 14.4469 44.2502C14.2163 44.0371 14.152 43.7339 14.2968 43.5747C14.4438 43.4146 14.754 43.4592 14.9811 43.6753C15.2116 43.8879 15.2812 44.1916 15.1267 44.3504L15.1259 44.3508ZM17.0946 45.2044C17.0303 45.4113 16.7337 45.5054 16.434 45.417C16.1352 45.3264 15.9396 45.0845 16.0009 44.8754C16.0621 44.6667 16.3609 44.5691 16.6624 44.6632C16.9612 44.7533 17.1567 44.9939 17.0946 45.2044ZM19.2572 45.3623C19.2646 45.5802 19.0109 45.7604 18.6972 45.7648C18.3809 45.7722 18.1249 45.5955 18.1219 45.3811C18.1219 45.1611 18.3704 44.983 18.6862 44.9769C18.9999 44.9712 19.2576 45.1462 19.2576 45.3619L19.2572 45.3623ZM21.2688 45.0202C21.3064 45.2324 21.0881 45.4507 20.7762 45.5089C20.4699 45.5657 20.1856 45.4336 20.1462 45.2232C20.1086 45.0053 20.3308 44.787 20.6371 44.7306C20.9494 44.6767 21.2294 44.8045 21.2688 45.0202Z" fill="#181616"/>
</svg>
