<?xml version="1.0"?>
<svg xmlns="http://www.w3.org/2000/svg" width="56" height="56" viewBox="0 0 56 56" fill="none">
<path fill-rule="evenodd" clip-rule="evenodd" d="M18.4447 2.54326C18.9487 2.7416 19.4037 3.06826 19.8167 3.49993C20.505 4.21393 21.086 5.23593 21.5294 6.44693C21.975 7.66493 22.2644 9.0136 22.374 10.3669C23.8431 9.53581 25.4735 9.02974 27.155 8.88293L27.274 8.8736C29.304 8.71026 31.3107 9.0766 33.0607 9.9796C33.2964 10.1033 33.5274 10.2363 33.7537 10.3763C33.8704 9.0486 34.1551 7.73026 34.5937 6.54026C35.0371 5.32693 35.618 4.30726 36.304 3.59093C36.6874 3.17621 37.1564 2.84979 37.6784 2.63426C38.2781 2.40093 38.9151 2.35893 39.5357 2.53626C40.4714 2.80226 41.274 3.39493 41.9064 4.25593C42.485 5.04226 42.919 6.05026 43.2154 7.25893C43.752 9.43826 43.8454 12.3059 43.4837 15.7639L43.6074 15.8573L43.668 15.9016C45.4344 17.2456 46.6641 19.1613 47.315 21.3849C48.3301 24.8546 47.819 28.7466 46.069 30.9236L46.0271 30.9726L46.0317 30.9796C47.0047 32.7576 47.5951 34.6359 47.7211 36.5796L47.7257 36.6496C47.875 39.1346 47.259 41.6359 45.8264 44.0929L45.81 44.1163L45.8334 44.1723C46.9347 46.8719 47.28 49.5903 46.8554 52.3063L46.8414 52.3973C46.7756 52.794 46.5551 53.1484 46.2284 53.3829C45.9017 53.6173 45.4953 53.7127 45.0984 53.6479C44.9018 53.6172 44.7133 53.5481 44.5435 53.4444C44.3738 53.3407 44.2262 53.2046 44.1091 53.0437C43.9921 52.8829 43.9079 52.7006 43.8614 52.5071C43.815 52.3137 43.8071 52.113 43.8384 51.9166C44.2281 49.5063 43.8617 47.0889 42.7184 44.6296C42.6117 44.4011 42.5643 44.1494 42.5807 43.8978C42.597 43.6462 42.6764 43.4027 42.8117 43.1899L42.821 43.1759C44.2304 41.0199 44.8137 38.9059 44.6877 36.8293C44.5804 35.0116 43.9294 33.2266 42.821 31.5256C42.6055 31.1949 42.5287 30.7927 42.6073 30.4058C42.6859 30.019 42.9135 29.6786 43.241 29.4583L43.2621 29.4443C43.8291 29.0733 44.3517 28.1259 44.6154 26.8309C44.9063 25.2996 44.8303 23.7212 44.3937 22.2249C43.9154 20.5916 43.0404 19.2289 41.8154 18.2979C40.427 17.2386 38.5884 16.7276 36.2621 16.8746C35.9579 16.8944 35.6547 16.8225 35.3918 16.6681C35.1289 16.5138 34.9184 16.2842 34.7874 16.0089C34.0547 14.4573 32.986 13.3466 31.6537 12.6583C30.3746 12.0199 28.9425 11.7516 27.519 11.8836C24.614 12.1146 22.052 13.7526 21.289 15.8176C21.1811 16.1082 20.987 16.3589 20.7326 16.5362C20.4782 16.7134 20.1757 16.8087 19.8657 16.8093C17.376 16.8139 15.4487 17.3973 14.0394 18.4496C12.8214 19.3596 11.9907 20.6313 11.552 22.1549C11.1551 23.5891 11.1007 25.0965 11.3934 26.5556C11.6547 27.8576 12.1657 28.9356 12.7514 29.5166L12.77 29.5329C13.2647 30.0159 13.3697 30.7696 13.0244 31.3646C12.1844 32.8159 11.5567 34.9789 11.454 37.0579C11.3374 39.4333 11.888 41.4959 13.1317 42.9753L13.169 43.0196C13.3567 43.2383 13.4774 43.5065 13.5168 43.792C13.5561 44.0775 13.5123 44.3683 13.3907 44.6296C12.0467 47.5136 11.6337 49.8843 12.0794 51.7509C12.1595 52.1391 12.085 52.5432 11.8716 52.8772C11.6583 53.2113 11.3231 53.4489 10.9372 53.5395C10.5514 53.6301 10.1454 53.5665 9.80573 53.3624C9.46603 53.1582 9.21942 52.8295 9.11838 52.4463C8.55138 50.0709 8.93638 47.3503 10.222 44.2843L10.2547 44.2026L10.236 44.1746C9.60416 43.2413 9.13257 42.2089 8.84071 41.1203L8.82905 41.0759C8.47488 39.7177 8.33552 38.3123 8.41605 36.9109C8.51871 34.7876 9.06471 32.6129 9.86738 30.8676L9.89538 30.8069L9.89071 30.8023C9.20705 29.8269 8.70071 28.5786 8.42071 27.1973L8.40905 27.1413C8.02327 25.2145 8.09761 23.2239 8.62605 21.3313C9.23738 19.1963 10.439 17.3623 12.21 16.0369C12.35 15.9319 12.497 15.8269 12.644 15.7289C12.273 12.2453 12.3664 9.35893 12.9054 7.1656C13.2017 5.95693 13.638 4.94893 14.2167 4.1626C14.8467 3.30393 15.6494 2.71126 16.585 2.44293C17.2057 2.2656 17.845 2.30526 18.4447 2.54093V2.54326ZM28.0487 23.7533C30.2327 23.7533 32.2487 24.4836 33.756 25.7483C35.226 26.9779 36.101 28.6299 36.101 30.2749C36.101 32.3469 35.1537 33.9616 33.4574 34.9929C32.0107 35.8679 30.0717 36.2926 27.8504 36.2926C25.496 36.2926 23.4847 35.6883 22.0334 34.5799C20.5937 33.4833 19.7864 31.9433 19.7864 30.2749C19.7864 28.6253 20.715 26.9686 22.2504 25.7343C23.809 24.4813 25.867 23.7533 28.0487 23.7533ZM28.0487 25.8439C26.4299 25.8298 24.8541 26.3644 23.578 27.3606C22.5024 28.2239 21.8934 29.3089 21.8934 30.2773C21.8934 31.2759 22.3834 32.2116 23.3167 32.9233C24.3784 33.7329 25.9394 34.2019 27.8504 34.2019C29.7147 34.2019 31.2874 33.8589 32.3584 33.2079C33.4387 32.5546 33.9917 31.6073 33.9917 30.2749C33.9917 29.2879 33.4177 28.1983 32.3981 27.3443C31.2687 26.3993 29.738 25.8439 28.0487 25.8439ZM29.5934 28.6673L29.6027 28.6766C29.8827 29.0289 29.8244 29.5399 29.472 29.8199L28.7907 30.3566V31.3973C28.7895 31.6289 28.6964 31.8506 28.532 32.0138C28.3675 32.1769 28.145 32.2682 27.9134 32.2676C27.6817 32.2682 27.4593 32.1769 27.2948 32.0138C27.1303 31.8506 27.0373 31.6289 27.036 31.3973V30.3239L26.4037 29.8153C26.3203 29.7484 26.251 29.6657 26.1997 29.5719C26.1484 29.4782 26.1162 29.3752 26.1049 29.2689C26.0936 29.1626 26.1035 29.0551 26.1339 28.9527C26.1644 28.8502 26.2149 28.7548 26.2824 28.6719C26.4201 28.5043 26.6184 28.3977 26.8342 28.3755C27.0501 28.3532 27.266 28.4169 27.435 28.5529L27.9367 28.9543L28.45 28.5483C28.6185 28.4152 28.8323 28.3531 29.0459 28.3753C29.2595 28.3976 29.4559 28.5023 29.5934 28.6673ZM17.8334 24.1896C18.9487 24.1896 19.8564 25.0996 19.8564 26.2219C19.857 26.7599 19.644 27.2761 19.2643 27.6572C18.8845 28.0383 18.369 28.253 17.831 28.2543C17.2939 28.2524 16.7793 28.0377 16.4001 27.6572C16.021 27.2767 15.808 26.7614 15.808 26.2243C15.8068 25.6863 16.0192 25.1698 16.3985 24.7883C16.7778 24.4068 17.2954 24.1915 17.8334 24.1896ZM38.1474 24.1896C39.2674 24.1896 40.1727 25.0996 40.1727 26.2219C40.1733 26.7599 39.9604 27.2761 39.5806 27.6572C39.2009 28.0383 38.6854 28.253 38.1474 28.2543C37.6102 28.2524 37.0957 28.0377 36.7165 27.6572C36.3373 27.2767 36.1244 26.7614 36.1244 26.2243C36.1231 25.6863 36.3355 25.1698 36.7148 24.7883C37.0941 24.4068 37.6094 24.1915 38.1474 24.1896ZM17.3597 5.3666L17.3527 5.37126C17.0824 5.48881 16.8516 5.68157 16.6877 5.9266L16.676 5.9406C16.354 6.3816 16.074 7.03026 15.864 7.88193C15.4674 9.4966 15.36 11.6876 15.5747 14.3733C16.578 14.0746 17.6724 13.8879 18.8507 13.8203L18.874 13.8179L18.9184 13.7386C19.0257 13.5473 19.14 13.3629 19.2637 13.1809C19.5507 11.3819 19.315 9.23293 18.6734 7.47826C18.3607 6.62893 17.9804 5.9616 17.6164 5.58126C17.5412 5.50219 17.4575 5.43175 17.3667 5.37126L17.3597 5.3666ZM38.7657 5.45993L38.761 5.46226C38.6703 5.52275 38.5865 5.59319 38.5114 5.67226C38.1474 6.0526 37.7647 6.72226 37.4544 7.5716C36.7777 9.42426 36.5514 11.7156 36.9177 13.5729L37.053 13.7993L37.0717 13.8319H37.1417C38.2997 13.8322 39.4517 13.9988 40.5624 14.3266C40.7631 11.7039 40.6511 9.5596 40.2637 7.97526C40.0537 7.1236 39.7737 6.47493 39.4494 6.03393L39.44 6.01993C39.2765 5.77404 39.0457 5.58044 38.775 5.46226H38.7657V5.45993Z" fill="black"/>
</svg>
