<?xml version="1.0"?>
<svg xmlns="http://www.w3.org/2000/svg" width="56" height="56" viewBox="0 0 56 56" fill="none">
<g clip-path="url(#clip0_1279_50363)">
<path d="M4.8125 3.5C4.8125 2.57163 5.18219 1.68131 5.84063 1.02506C6.50007 0.368163 7.39308 -0.000461188 8.32387 4.33036e-07H24.7083C25.6389 -0.000201845 26.5316 0.368392 27.1911 1.02506C27.5168 1.34968 27.7752 1.7354 27.9516 2.1601C28.1279 2.5848 28.2187 3.04014 28.2188 3.5V18.6668H8.32344C7.39294 18.667 6.50029 18.2984 5.84106 17.6418C5.51513 17.3172 5.25648 16.9314 5.07998 16.5066C4.90347 16.0818 4.81257 15.6264 4.8125 15.1664V3.5ZM28.2188 18.6668H48.1141C49.0447 18.6666 49.9375 19.0352 50.5969 19.6919C50.9227 20.0165 51.1812 20.4022 51.3576 20.8269C51.5341 21.2516 51.6249 21.7069 51.625 22.1668V33.8332C51.6249 34.2931 51.5341 34.7484 51.3576 35.1731C51.1812 35.5978 50.9227 35.9835 50.5969 36.3081C49.9375 36.9648 49.0447 37.3334 48.1141 37.3332H28.2188V18.6668ZM4.8125 40.8332C4.8125 39.9053 5.18219 39.0149 5.84063 38.3587C6.49989 37.7017 7.39273 37.333 8.32344 37.3332H28.2188V52.5C28.2187 52.9599 28.1278 53.4153 27.9514 53.84C27.775 54.2647 27.5164 54.6504 27.1906 54.9749C26.5312 55.6317 25.6384 56.0003 24.7078 56H8.32344C7.39296 56.0001 6.50035 55.6315 5.84106 54.9749C5.51518 54.6504 5.25657 54.2647 5.08006 53.84C4.90356 53.4153 4.81263 52.9599 4.8125 52.5V40.8332Z" fill="#F26207"/>
</g>
<defs>
<clipPath id="clip0_1279_50363">
<rect width="56" height="56" fill="white"/>
</clipPath>
</defs>
</svg>
