<?xml version="1.0"?>
<svg xmlns="http://www.w3.org/2000/svg" width="56" height="56" viewBox="0 0 56 56" fill="none">
<g clip-path="url(#clip0_1279_50387)">
<path fill-rule="evenodd" clip-rule="evenodd" d="M55.4867 11.6761H54.9547C54.2841 11.6782 53.6206 11.8125 53.002 12.0712C52.3834 12.3299 51.8218 12.708 51.3494 13.1839C50.877 13.6598 50.503 14.2241 50.2488 14.8446C49.9947 15.4651 49.8652 16.1296 49.868 16.8001V28.2614C49.868 30.5481 47.992 32.4031 45.7613 32.4031C45.0867 32.3973 44.4231 32.2306 43.8257 31.9169C43.2284 31.6032 42.7145 31.1515 42.3267 30.5994L30.7253 13.8834C30.2537 13.1993 29.6229 12.6401 28.8872 12.254C28.1515 11.8678 27.3329 11.6663 26.502 11.6667C23.856 11.6667 21.476 13.9347 21.476 16.7371V28.2638C21.476 30.5504 19.6163 32.4054 17.3693 32.4054C16.0393 32.4054 14.7187 31.7311 13.9347 30.6017L0.952 11.8954C0.658 11.4754 0 11.6831 0 12.1987V22.1947C0 22.6988 0.154 23.1888 0.438667 23.6041L13.2137 42.0117C13.9697 43.0991 15.0803 43.9064 16.366 44.2004C19.579 44.9378 22.5377 42.4411 22.5377 39.2607V27.7434C22.5377 25.4568 24.374 23.6017 26.6443 23.6017H26.649C28.0163 23.6017 29.2973 24.2737 30.0837 25.4054L41.685 42.1191C42.1497 42.81 42.7791 43.3745 43.5164 43.7614C44.2537 44.1484 45.0757 44.3458 45.9083 44.3358C48.6103 44.3358 50.9273 42.0654 50.9273 39.2654V27.7411C50.9273 25.4544 52.7637 23.5994 55.034 23.5994H55.4867C55.7713 23.5994 56 23.3661 56 23.0814V12.1917C56.0003 12.124 55.9873 12.0569 55.9616 11.9942C55.936 11.9316 55.8983 11.8745 55.8506 11.8264C55.803 11.7783 55.7463 11.7401 55.6838 11.7139C55.6214 11.6877 55.5544 11.6741 55.4867 11.6737V11.6761Z" fill="black"/>
</g>
<defs>
<clipPath id="clip0_1279_50387">
<rect width="56" height="56" fill="white"/>
</clipPath>
</defs>
</svg>
